<svg xmlns="http://www.w3.org/2000/svg" width="16" height="16" fill="currentColor" viewBox="0 0 16 16">
  <path d="M1.5 0A1.5 1.5 0 0 0 0 1.5v13A1.5 1.5 0 0 0 1.5 16h13a1.5 1.5 0 0 0 1.5-1.5v-13A1.5 1.5 0 0 0 14.5 0h-13zm1 2.5a.5.5 0 0 1 .5-.5h11a.5.5 0 0 1 .5.5v9a.5.5 0 0 1-.5.5h-11a.5.5 0 0 1-.5-.5v-9zM11 7a1 1 0 1 1 0 2 1 1 0 0 1 0-2zm-5 3a1 1 0 1 1 0 2 1 1 0 0 1 0-2zm8-5a1 1 0 1 1 0 2 1 1 0 0 1 0-2zM4 6a1 1 0 1 1 0 2 1 1 0 0 1 0-2z"/>
  <path d="M11 7.5V8a.5.5 0 0 1-.5.5h-5A.5.5 0 0 1 5 8v-.5a.5.5 0 0 1 .5-.5h5a.5.5 0 0 1 .5.5z"/>
  <path d="M6 10.5V10a.5.5 0 0 1 .5-.5h5a.5.5 0 0 1 .5.5v.5a.5.5 0 0 1-.5.5h-5a.5.5 0 0 1-.5-.5z"/>
  <path d="M3 5.5v3a.5.5 0 0 1-.5.5h-1a.5.5 0 0 1-.5-.5v-3a.5.5 0 0 1 .5-.5h1a.5.5 0 0 1 .5.5z"/>
</svg> 