<svg xmlns="http://www.w3.org/2000/svg" width="16" height="16" viewBox="0 0 16 16" fill="currentColor">
  <path d="M15.5 15H1.5C1.2 15 1 14.8 1 14.5V1.5C1 1.2 1.2 1 1.5 1S2 1.2 2 1.5V14H15.5C15.8 14 16 14.2 16 14.5S15.8 15 15.5 15z"/>
  <path d="M15.5 4.5c-.3 0-.5-.3-.5-.5 0-.1 0-.1-.1-.1l-3.2.6c0 .1 0 .1 0 .2 0 .3-.2.5-.5.5s-.5-.2-.5-.5c0-.1 0-.1 0-.2l-3.2.6c0 .1 0 .1-.1.2L6 4.1c-.1-.2-.3-.3-.5-.3-.2 0-.4.1-.5.3l-3.5 5.3c-.2.2-.1.5.1.7.1.1.2.1.3.1.2 0 .3-.1.4-.2L5.5 5c.2.3.5.5.9.5.3 0 .6-.1.7-.3l1.4 1.1c.1.1.3.2.5.2.1 0 .1 0 .2 0l3.2-.6c0 .2.2.4.5.4.3 0 .5-.2.5-.5 0-.1 0-.2-.1-.3l1.4-.3c.3 0 .5-.3.4-.6 0-.2-.2-.4-.6-.4z"/>
</svg> 