<svg xmlns="http://www.w3.org/2000/svg" width="16" height="16" fill="currentColor" viewBox="0 0 16 16">
  <path d="M11 6.5a.5.5 0 0 1 .5-.5h1a.5.5 0 0 1 .5.5v1a.5.5 0 0 1-.5.5h-1a.5.5 0 0 1-.5-.5v-1z"/>
  <path d="M3.5 0a.5.5 0 0 1 .5.5V1h8V.5a.5.5 0 0 1 1 0V1h1a2 2 0 0 1 2 2v11a2 2 0 0 1-2 2H2a2 2 0 0 1-2-2V3a2 2 0 0 1 2-2h1V.5a.5.5 0 0 1 .5-.5zM1 4v10a1 1 0 0 0 1 1h12a1 1 0 0 0 1-1V4H1z"/>
  <path d="M8.5 7a.5.5 0 0 0-.5.5v1a.5.5 0 0 0 .5.5H9a.5.5 0 0 0 .5-.5v-1A.5.5 0 0 0 9 7h-.5zm-2 2a.5.5 0 0 0-.5.5v1a.5.5 0 0 0 .5.5H7a.5.5 0 0 0 .5-.5v-1A.5.5 0 0 0 7 9h-.5zm-2.5.5a.5.5 0 0 1 .5-.5H4a.5.5 0 0 1 .5.5v1a.5.5 0 0 1-.5.5h-.5a.5.5 0 0 1-.5-.5v-1z"/>
</svg> 