<svg xmlns="http://www.w3.org/2000/svg" width="16" height="16" fill="currentColor" viewBox="0 0 16 16">
  <path d="M3.5 0a.5.5 0 0 1 .5.5V1h8V.5a.5.5 0 0 1 1 0V1h1a2 2 0 0 1 2 2v11a2 2 0 0 1-2 2H2a2 2 0 0 1-2-2V3a2 2 0 0 1 2-2h1V.5a.5.5 0 0 1 .5-.5zM2 2a1 1 0 0 0-1 1v11a1 1 0 0 0 1 1h12a1 1 0 0 0 1-1V3a1 1 0 0 0-1-1H2z"/>
  <path d="M3.5 0a.5.5 0 0 1 .5.5V1h8V.5a.5.5 0 0 1 1 0V8a.5.5 0 0 1-1 0V7H4v.5a.5.5 0 0 1-1 0V.5a.5.5 0 0 1 .5-.5zM4 2v2h8V2H4zm2 5V4H4v3h2zm1 0h2V4H7v3zm3 0h2V4h-2v3zM1 9.5A1.5 1.5 0 0 1 2.5 8h11a1.5 1.5 0 0 1 0 3h-11A1.5 1.5 0 0 1 1 9.5z"/>
  <path d="M1 14.5a.5.5 0 0 1 .5-.5h13a.5.5 0 0 1 0 1h-13a.5.5 0 0 1-.5-.5z"/>
</svg> 