<svg xmlns="http://www.w3.org/2000/svg" width="16" height="16" viewBox="0 0 16 16" fill="currentColor">
  <path d="M0 2.5A1.5 1.5 0 011.5 1H11a.5.5 0 01.5.5v1a.5.5 0 01-.5.5H1.5a.5.5 0 00-.5.5v10.5a.5.5 0 01-1 0V2.5z"/>
  <path d="M3.5 2A1.5 1.5 0 002 3.5v10A1.5 1.5 0 003.5 15h9a1.5 1.5 0 001.5-1.5V3.5A1.5 1.5 0 0012.5 2h-9zM3 3.5a.5.5 0 01.5-.5h9a.5.5 0 01.5.5V14a.5.5 0 01-.5.5h-9a.5.5 0 01-.5-.5V3.5z"/>
  <path d="M4.5 5a.5.5 0 000 1h7a.5.5 0 000-1h-7zm0 1.5a.5.5 0 000 1h7a.5.5 0 000-1h-7zm0 1.5a.5.5 0 000 1h7a.5.5 0 000-1h-7zm0 2.5a.5.5 0 000 1h3a.5.5 0 000-1h-3zm0 1.5a.5.5 0 000 1h3a.5.5 0 000-1h-3zM9 10.5a.5.5 0 01.5-.5h2a.5.5 0 01.5.5v3a.5.5 0 01-.5.5h-2a.5.5 0 01-.5-.5v-3z"/>
</svg> 