<svg xmlns="http://www.w3.org/2000/svg" width="16" height="16" fill="currentColor" viewBox="0 0 16 16">
  <path d="M13.35 11.235a.5.5 0 0 1-.686.17l-1.2-.72a.5.5 0 0 1 .511-.858l1.2.72a.5.5 0 0 1 .175.686zm-6.759-2.424a.5.5 0 0 1-.686.17l-1.2-.72a.5.5 0 0 1 .511-.858l1.2.72a.5.5 0 0 1 .175.686zm4.789-5.358.4.533a.5.5 0 0 1-.813.583l-.4-.533a.5.5 0 0 1 .813-.583zM0 5.5A.5.5 0 0 1 .5 5h2.026a2.5 2.5 0 0 1 4.947 0H15.5a.5.5 0 0 1 0 1h-8.026a2.5 2.5 0 0 1-4.947 0H.5a.5.5 0 0 1-.5-.5zm2.5 2a1.5 1.5 0 1 0 0-3 1.5 1.5 0 0 0 0 3zM0 10.5a.5.5 0 0 1 .5-.5h8.026a2.5 2.5 0 0 1 4.947 0H15.5a.5.5 0 0 1 0 1h-2.026a2.5 2.5 0 0 1-4.947 0H.5a.5.5 0 0 1-.5-.5zm13 2a1.5 1.5 0 1 0 0-3 1.5 1.5 0 0 0 0 3z"/>
</svg> 