<svg xmlns="http://www.w3.org/2000/svg" width="16" height="16" viewBox="0 0 16 16" fill="currentColor">
  <path d="M13 7.5V6a1 1 0 00-1-1h-1.5V3.5a1.5 1.5 0 00-3 0V5H6a1 1 0 00-1 1v1.5a2.5 2.5 0 00-2 2.45v3A1.5 1.5 0 004.5 14h7a1.5 1.5 0 001.5-1.5v-3A2.5 2.5 0 0013 7.5zM8.5 3.5a.5.5 0 011 0V5h-1V3.5zM6 6h4a.5.5 0 01.5.5V8h-5V6.5A.5.5 0 016 6zm6 6.5a.5.5 0 01-.5.5h-7a.5.5 0 01-.5-.5v-3a1.5 1.5 0 011.5-1.5h5a1.5 1.5 0 011.5 1.5v3z"/>
  <path d="M6 10a1 1 0 100 2 1 1 0 000-2zm3 0a1 1 0 100 2 1 1 0 000-2z"/>
</svg> 